
<svg width="149" height="213" viewBox="0 0 149 213" fill="none" xmlns="http://www.w3.org/2000/svg">
<path d="M115.9 28.2C115.5 152.8 115.7 144.9 113.2 151.9C107 169.1 93.9 179.4 76.8 180.7C60.1 182 43.5 171.4 35.8 154.3C33.9 150.3 33.6 147.6 33.5 138.5C33.5 127.7 33.6 127.2 37.3 119.8C42.1 110 50.1 102.4 59.4 98.6C71.3 93.9 86.9 95.5 97 102.5C99 103.9 100.9 105 101.3 105C101.7 105 102 97.1 102 87.4V69.9L97.7 68C89.3 64.3 80.2 62.7 70 63.3C42.6 64.9 18.3 81.1 7 105.4C1.9 116.2 0 124.7 0 137.3C0 150.3 2.1 159.3 8.2 172C12.6 181.1 14.4 183.5 21.9 191C36.4 205.3 52.7 212.2 72.5 212.3C87.4 212.3 98.6 208.8 110.3 200.3C114.3 197.3 115 197.1 115.1 198.7C115.3 205 115.7 210.1 116.1 210.4C116.3 210.6 123.6 210.5 132.3 210.3L148 209.7V115.5V98.25V86V71.2C148.3 63.1 148.3 43.8 148.1 28.2L147.8 0H116L115.9 28.2ZM30.2 91.4C17.4 104.9 11.3 120.4 9.3 144.8C8.8 150.2 9.50001 154.9 11.6 161.6C11.9 162.7 11.5 162.5 10.6 161C9.80001 159.6 7.59999 154.1 5.89999 148.7C2.99999 139.8 2.8 138 3.3 130.7C3.9 121.9 6.49999 113.2 10.4 106.5C13.1 102 17.3 97.6 15.2 101.6C13.4 105 10 114 10.5 114C10.8 114 12.3 111.3 14 108.1C18 100 31.3 86 34.9 86C35.1 86 33 88.4 30.2 91.4ZM49.9 93.7C47 96.4 43.5 99.6 42.2 101C38.4 104.8 32.6 114.4 33.7 114.7C34.3 114.9 33.8 117.4 32.4 120.8C27.1 133.9 26.7 147 31.4 159.5C33.4 164.6 33.6 166.1 32.5 164.9C29.8 162.2 25.9 149.9 25.3 142.5C24.7 133.8 24 131.6 23 135C21.4 140 21.9 129.7 23.5 123.5C27 110.3 37.2 97 47.9 91.7C55.6 87.9 56 88.3 49.9 93.7Z" fill="url(#paint0_linear_4_3)"/>
<defs>
<linearGradient id="paint0_linear_4_3" x1="74.1197" y1="0" x2="74.1197" y2="212.3" gradientUnits="userSpaceOnUse">
<stop stop-color="#BB20E8"/>
<stop offset="1" stop-color="#0AA5E5"/>
</linearGradient>
</defs>
</svg>

